<svg width="204" height="109" viewBox="0 0 204 109" fill="none" xmlns="http://www.w3.org/2000/svg">
<g filter="url(#filter0_d_247_36)">
<path d="M49.8285 36C47.1285 36 45.1365 35.364 43.8525 34.092C42.5805 32.808 41.9445 30.816 41.9445 28.116V19.872C41.9445 17.148 42.5805 15.15 43.8525 13.878C45.1245 12.606 47.1045 11.976 49.7925 11.988H54.1485C56.3805 11.988 58.0725 12.456 59.2245 13.392C60.3765 14.316 61.0365 15.78 61.2045 17.784C61.2645 18.228 61.1805 18.57 60.9525 18.81C60.7245 19.038 60.3885 19.152 59.9445 19.152C59.1405 19.152 58.6785 18.708 58.5585 17.82C58.4505 16.596 58.0605 15.762 57.3885 15.318C56.7165 14.862 55.6365 14.634 54.1485 14.634H49.7925C48.4845 14.634 47.4525 14.796 46.6965 15.12C45.9405 15.432 45.4005 15.972 45.0765 16.74C44.7525 17.496 44.5905 18.54 44.5905 19.872V28.116C44.5905 29.436 44.7525 30.48 45.0765 31.248C45.4005 32.004 45.9405 32.544 46.6965 32.868C47.4645 33.192 48.5085 33.354 49.8285 33.354H54.1485C55.6365 33.354 56.7165 33.132 57.3885 32.688C58.0605 32.232 58.4505 31.392 58.5585 30.168C58.6785 29.28 59.1405 28.836 59.9445 28.836C60.3885 28.836 60.7245 28.956 60.9525 29.196C61.1805 29.424 61.2645 29.76 61.2045 30.204C61.0365 32.22 60.3765 33.69 59.2245 34.614C58.0725 35.538 56.3805 36 54.1485 36H49.8285ZM80.8441 36.414C80.5321 36.414 80.2921 36.318 80.1241 36.126C79.9561 35.934 79.8361 35.556 79.7641 34.992C79.7041 34.428 79.6741 33.594 79.6741 32.49L80.0341 33.336C79.3021 34.368 78.3841 35.1 77.2801 35.532C76.1761 35.952 74.8681 36.162 73.3561 36.162H70.0081C68.7601 36.162 67.7401 35.742 66.9481 34.902C66.1681 34.05 65.7781 32.76 65.7781 31.032C65.7781 29.856 65.9701 28.89 66.3541 28.134C66.7381 27.366 67.3081 26.76 68.0641 26.316C68.8321 25.872 69.7621 25.56 70.8541 25.38C71.9581 25.188 73.2181 25.092 74.6341 25.092H80.7361L79.5481 26.19V23.436C79.5481 22.836 79.4401 22.428 79.2241 22.212C79.0201 21.996 78.5941 21.888 77.9461 21.888H72.8701C71.7181 21.888 70.8241 21.936 70.1881 22.032C69.5521 22.116 69.1021 22.272 68.8381 22.5C68.5741 22.716 68.4361 23.01 68.4241 23.382C68.3881 23.934 68.2861 24.342 68.1181 24.606C67.9621 24.87 67.6201 25.002 67.0921 25.002C66.2161 25.002 65.7781 24.42 65.7781 23.256C65.7781 21.876 66.3481 20.862 67.4881 20.214C68.6401 19.566 70.3501 19.242 72.6181 19.242H78.1981C79.6861 19.242 80.7241 19.596 81.3121 20.304C81.9001 21.012 82.1941 22.254 82.1941 24.03V34.848C82.1941 35.892 81.7441 36.414 80.8441 36.414ZM70.0981 33.624H73.3561C75.6001 33.624 77.1961 33.108 78.1441 32.076C79.0921 31.044 79.5601 29.46 79.5481 27.324L79.8721 27.63H74.6341C73.1341 27.63 71.9281 27.714 71.0161 27.882C70.1041 28.038 69.4441 28.35 69.0361 28.818C68.6281 29.286 68.4241 29.982 68.4241 30.906C68.4241 31.794 68.5801 32.472 68.8921 32.94C69.2041 33.396 69.6061 33.624 70.0981 33.624ZM88.4258 42.714C87.5618 42.714 87.1298 42.162 87.1298 41.058V20.556C87.1298 19.512 87.5798 18.99 88.4798 18.99C88.9478 18.99 89.2778 19.14 89.4698 19.44C89.6618 19.728 89.7578 20.226 89.7578 20.934V22.356L89.2898 21.726C90.0218 20.862 90.9518 20.232 92.0798 19.836C93.2078 19.44 94.5158 19.242 96.0038 19.242H97.0478C99.1958 19.242 100.912 19.446 102.196 19.854C103.492 20.25 104.428 20.928 105.004 21.888C105.58 22.836 105.868 24.132 105.868 25.776V29.61C105.868 31.266 105.58 32.574 105.004 33.534C104.428 34.482 103.498 35.16 102.214 35.568C100.942 35.964 99.2438 36.162 97.1198 36.162H89.7758V41.058C89.7758 42.162 89.3258 42.714 88.4258 42.714ZM89.7758 33.516H97.1198C98.8238 33.516 100.114 33.42 100.99 33.228C101.866 33.036 102.454 32.658 102.754 32.094C103.066 31.518 103.222 30.666 103.222 29.538V25.866C103.222 24.714 103.06 23.856 102.736 23.292C102.424 22.716 101.824 22.338 100.936 22.158C100.048 21.978 98.7518 21.888 97.0478 21.888H96.0038C93.8918 21.888 92.3258 22.368 91.3058 23.328C90.2858 24.276 89.7758 25.716 89.7758 27.648V33.516Z" fill="black"/>
</g>
<g filter="url(#filter1_d_247_36)">
<path d="M73.9255 66.414C73.4695 66.414 73.1155 66.282 72.8635 66.018C72.6115 65.754 72.4855 65.388 72.4855 64.92V45.588H67.2115C66.7195 45.588 66.3295 45.474 66.0415 45.246C65.7655 45.006 65.6275 44.676 65.6275 44.256C65.6275 43.848 65.7655 43.53 66.0415 43.302C66.3295 43.062 66.7195 42.942 67.2115 42.942H80.6575C81.7015 42.942 82.2235 43.38 82.2235 44.256C82.2235 45.144 81.7015 45.588 80.6575 45.588H75.4375V64.92C75.4375 65.376 75.2995 65.736 75.0235 66C74.7475 66.276 74.3815 66.414 73.9255 66.414ZM93.9373 66.162C91.7893 66.162 90.0673 65.964 88.7713 65.568C87.4753 65.172 86.5333 64.5 85.9453 63.552C85.3693 62.592 85.0813 61.278 85.0813 59.61V55.776C85.0813 54.12 85.3693 52.818 85.9453 51.87C86.5333 50.91 87.4753 50.232 88.7713 49.836C90.0673 49.44 91.7893 49.242 93.9373 49.242H94.9813C97.1293 49.242 98.8513 49.446 100.147 49.854C101.443 50.25 102.379 50.928 102.955 51.888C103.531 52.836 103.819 54.132 103.819 55.776V57.558H87.7273V59.538C87.7273 60.666 87.8833 61.518 88.1953 62.094C88.5073 62.658 89.1073 63.036 89.9953 63.228C90.8953 63.42 92.2093 63.516 93.9373 63.516H99.3013C99.9253 63.516 100.345 63.396 100.561 63.156C100.789 62.904 100.903 62.454 100.903 61.806C100.903 61.266 101.023 60.846 101.263 60.546C101.503 60.246 101.827 60.096 102.235 60.096C102.655 60.108 102.979 60.27 103.207 60.582C103.435 60.882 103.549 61.314 103.549 61.878C103.549 62.802 103.417 63.588 103.153 64.236C102.889 64.872 102.463 65.352 101.875 65.676C101.287 66 100.513 66.162 99.5533 66.162H93.9373ZM87.7273 54.912H101.155C101.059 53.712 100.651 52.92 99.9313 52.536C99.4993 52.296 98.8633 52.128 98.0233 52.032C97.1953 51.936 96.1813 51.888 94.9813 51.888H93.9373C92.6773 51.888 91.6333 51.936 90.8053 52.032C89.9773 52.128 89.3533 52.29 88.9333 52.518C88.2013 52.902 87.7993 53.7 87.7273 54.912ZM108.495 66.558C108.087 66.558 107.745 66.438 107.469 66.198C107.193 65.97 107.055 65.67 107.055 65.298C107.055 65.118 107.091 64.944 107.163 64.776C107.235 64.596 107.343 64.428 107.487 64.272L113.535 57.72L107.487 51.114C107.199 50.778 107.055 50.43 107.055 50.07C107.055 49.71 107.187 49.416 107.451 49.188C107.727 48.96 108.063 48.846 108.459 48.846C108.891 48.846 109.251 49.008 109.539 49.332L115.479 55.956L121.383 49.332C121.695 49.008 122.049 48.846 122.445 48.846C122.829 48.846 123.153 48.96 123.417 49.188C123.693 49.416 123.831 49.71 123.831 50.07C123.831 50.43 123.681 50.778 123.381 51.114L117.333 57.72L123.363 64.272C123.519 64.428 123.633 64.596 123.705 64.776C123.789 64.944 123.831 65.118 123.831 65.298C123.831 65.658 123.693 65.958 123.417 66.198C123.141 66.438 122.805 66.558 122.409 66.558C122.001 66.558 121.653 66.396 121.365 66.072L115.479 59.43L109.521 66.072C109.221 66.396 108.879 66.558 108.495 66.558Z" fill="black"/>
</g>
<g filter="url(#filter2_d_247_36)">
<path d="M53.5395 91.162C51.3795 91.162 49.6515 90.958 48.3555 90.55C47.0715 90.13 46.1355 89.434 45.5475 88.462C44.9715 87.49 44.6835 86.152 44.6835 84.448V74.638C44.6835 72.958 44.9595 71.632 45.5115 70.66C46.0755 69.688 46.9695 68.992 48.1935 68.572C49.4295 68.152 51.0495 67.942 53.0535 67.942H58.6155C59.5755 67.942 60.3495 68.11 60.9375 68.446C61.5255 68.782 61.9515 69.256 62.2155 69.868C62.4795 70.468 62.6115 71.17 62.6115 71.974C62.6115 73.33 62.1675 74.008 61.2795 74.008C60.8115 74.008 60.4815 73.858 60.2895 73.558C60.0975 73.246 59.9895 72.82 59.9655 72.28C59.9295 71.668 59.8275 71.236 59.6595 70.984C59.4915 70.72 59.0595 70.588 58.3635 70.588H53.0535C51.5055 70.588 50.3175 70.69 49.4895 70.894C48.6615 71.086 48.0915 71.476 47.7795 72.064C47.4795 72.652 47.3295 73.528 47.3295 74.692V84.394C47.3295 85.558 47.4855 86.44 47.7975 87.04C48.1215 87.628 48.7275 88.024 49.6155 88.228C50.5035 88.42 51.8115 88.516 53.5395 88.516H58.3635C59.0595 88.516 59.4915 88.384 59.6595 88.12C59.8275 87.856 59.9295 87.418 59.9655 86.806C60.0015 86.194 60.1275 85.756 60.3435 85.492C60.5595 85.228 60.8715 85.096 61.2795 85.096C61.7235 85.108 62.0535 85.27 62.2695 85.582C62.4975 85.894 62.6115 86.386 62.6115 87.058C62.6115 87.898 62.4795 88.63 62.2155 89.254C61.9515 89.866 61.5255 90.34 60.9375 90.676C60.3495 91 59.5755 91.162 58.6155 91.162H53.5395ZM75.3631 91.162C73.2151 91.162 71.4931 90.964 70.1971 90.568C68.9011 90.172 67.9591 89.5 67.3711 88.552C66.7951 87.592 66.5071 86.278 66.5071 84.61V80.776C66.5071 79.12 66.7951 77.818 67.3711 76.87C67.9591 75.91 68.9011 75.232 70.1971 74.836C71.4931 74.44 73.2151 74.242 75.3631 74.242H76.4071C78.5551 74.242 80.2771 74.446 81.5731 74.854C82.8691 75.25 83.8051 75.928 84.3811 76.888C84.9571 77.836 85.2451 79.132 85.2451 80.776V82.558H69.1531V84.538C69.1531 85.666 69.3091 86.518 69.6211 87.094C69.9331 87.658 70.5331 88.036 71.4211 88.228C72.3211 88.42 73.6351 88.516 75.3631 88.516H80.7271C81.3511 88.516 81.7711 88.396 81.9871 88.156C82.2151 87.904 82.3291 87.454 82.3291 86.806C82.3291 86.266 82.4491 85.846 82.6891 85.546C82.9291 85.246 83.2531 85.096 83.6611 85.096C84.0811 85.108 84.4051 85.27 84.6331 85.582C84.8611 85.882 84.9751 86.314 84.9751 86.878C84.9751 87.802 84.8431 88.588 84.5791 89.236C84.3151 89.872 83.8891 90.352 83.3011 90.676C82.7131 91 81.9391 91.162 80.9791 91.162H75.3631ZM69.1531 79.912H82.5811C82.4851 78.712 82.0771 77.92 81.3571 77.536C80.9251 77.296 80.2891 77.128 79.4491 77.032C78.6211 76.936 77.6071 76.888 76.4071 76.888H75.3631C74.1031 76.888 73.0591 76.936 72.2311 77.032C71.4031 77.128 70.7791 77.29 70.3591 77.518C69.6271 77.902 69.2251 78.7 69.1531 79.912ZM90.9649 97.714C90.1009 97.714 89.6689 97.162 89.6689 96.058V75.556C89.6689 74.512 90.1189 73.99 91.0189 73.99C91.4869 73.99 91.8169 74.14 92.0089 74.44C92.2009 74.728 92.2969 75.226 92.2969 75.934V77.356L91.8289 76.726C92.5609 75.862 93.4909 75.232 94.6189 74.836C95.7469 74.44 97.0549 74.242 98.5429 74.242H99.5869C101.735 74.242 103.451 74.446 104.735 74.854C106.031 75.25 106.967 75.928 107.543 76.888C108.119 77.836 108.407 79.132 108.407 80.776V84.61C108.407 86.266 108.119 87.574 107.543 88.534C106.967 89.482 106.037 90.16 104.753 90.568C103.481 90.964 101.783 91.162 99.6589 91.162H92.3149V96.058C92.3149 97.162 91.8649 97.714 90.9649 97.714ZM92.3149 88.516H99.6589C101.363 88.516 102.653 88.42 103.529 88.228C104.405 88.036 104.993 87.658 105.293 87.094C105.605 86.518 105.761 85.666 105.761 84.538V80.866C105.761 79.714 105.599 78.856 105.275 78.292C104.963 77.716 104.363 77.338 103.475 77.158C102.587 76.978 101.291 76.888 99.5869 76.888H98.5429C96.4309 76.888 94.8649 77.368 93.8449 78.328C92.8249 79.276 92.3149 80.716 92.3149 82.648V88.516ZM113.049 91.162V74.242H124.767C126.663 74.242 128.169 74.662 129.285 75.502C130.413 76.33 130.977 77.512 130.977 79.048C130.977 79.912 130.821 80.626 130.509 81.19C130.197 81.742 129.747 82.186 129.159 82.522C130.371 83.422 130.977 84.67 130.977 86.266C130.977 87.322 130.719 88.216 130.203 88.948C129.699 89.668 128.979 90.22 128.043 90.604C127.119 90.976 126.027 91.162 124.767 91.162H113.049ZM115.695 88.516H124.515C127.059 88.516 128.331 87.874 128.331 86.59C128.331 85.582 128.043 84.856 127.467 84.412C126.903 83.968 125.967 83.746 124.659 83.746H115.695V88.516ZM115.695 81.1H124.659C126.099 81.1 127.077 80.95 127.593 80.65C128.109 80.35 128.367 79.732 128.367 78.796C128.367 77.524 127.083 76.888 124.515 76.888H115.695V81.1ZM151.89 91.414C151.014 91.414 150.576 90.85 150.576 89.722V77.968L138.21 91.162H135.654V75.592C135.654 74.524 136.092 73.99 136.968 73.99C137.856 73.99 138.3 74.548 138.3 75.664V87.562L150.756 74.242H153.222V89.812C153.222 90.88 152.778 91.414 151.89 91.414ZM166.699 91.162C164.551 91.162 162.829 90.964 161.533 90.568C160.237 90.172 159.295 89.5 158.707 88.552C158.131 87.592 157.843 86.278 157.843 84.61V80.776C157.843 79.12 158.131 77.818 158.707 76.87C159.295 75.91 160.237 75.232 161.533 74.836C162.829 74.44 164.551 74.242 166.699 74.242H171.811C172.759 74.242 173.521 74.41 174.097 74.746C174.685 75.07 175.111 75.544 175.375 76.168C175.639 76.792 175.771 77.542 175.771 78.418C175.771 79.042 175.657 79.516 175.429 79.84C175.213 80.152 174.883 80.308 174.439 80.308C173.995 80.308 173.665 80.152 173.449 79.84C173.233 79.516 173.125 79.108 173.125 78.616C173.113 78.004 173.005 77.566 172.801 77.302C172.609 77.026 172.183 76.888 171.523 76.888H166.699C164.971 76.888 163.657 76.978 162.757 77.158C161.869 77.338 161.269 77.716 160.957 78.292C160.645 78.856 160.489 79.714 160.489 80.866V84.538C160.489 85.666 160.645 86.518 160.957 87.094C161.269 87.658 161.869 88.036 162.757 88.228C163.657 88.42 164.971 88.516 166.699 88.516H171.523C172.195 88.516 172.627 88.39 172.819 88.138C173.011 87.874 173.113 87.43 173.125 86.806C173.125 86.278 173.239 85.864 173.467 85.564C173.695 85.252 174.013 85.096 174.421 85.096C174.841 85.096 175.171 85.252 175.411 85.564C175.651 85.864 175.771 86.338 175.771 86.986C175.771 87.886 175.633 88.648 175.357 89.272C175.093 89.896 174.667 90.37 174.079 90.694C173.491 91.006 172.723 91.162 171.775 91.162H166.699Z" fill="black"/>
</g>
<g filter="url(#filter3_d_247_36)">
<path d="M38 30H4V85H36.5524M113 30H194V85H184.035" stroke="black" stroke-width="2"/>
</g>
<defs>
<filter id="filter0_d_247_36" x="38.9445" y="10.97" width="75.9233" height="42.744" filterUnits="userSpaceOnUse" color-interpolation-filters="sRGB">
<feFlood flood-opacity="0" result="BackgroundImageFix"/>
<feColorMatrix in="SourceAlpha" type="matrix" values="0 0 0 0 0 0 0 0 0 0 0 0 0 0 0 0 0 0 127 0" result="hardAlpha"/>
<feOffset dx="3" dy="5"/>
<feGaussianBlur stdDeviation="3"/>
<feComposite in2="hardAlpha" operator="out"/>
<feColorMatrix type="matrix" values="0 0 0 0 0.952941 0 0 0 0 0.392157 0 0 0 0 0.0784314 0 0 0 1 0"/>
<feBlend mode="normal" in2="BackgroundImageFix" result="effect1_dropShadow_247_36"/>
<feBlend mode="normal" in="SourceGraphic" in2="effect1_dropShadow_247_36" result="shape"/>
</filter>
<filter id="filter1_d_247_36" x="62.6276" y="41.942" width="70.2035" height="35.616" filterUnits="userSpaceOnUse" color-interpolation-filters="sRGB">
<feFlood flood-opacity="0" result="BackgroundImageFix"/>
<feColorMatrix in="SourceAlpha" type="matrix" values="0 0 0 0 0 0 0 0 0 0 0 0 0 0 0 0 0 0 127 0" result="hardAlpha"/>
<feOffset dx="3" dy="5"/>
<feGaussianBlur stdDeviation="3"/>
<feComposite in2="hardAlpha" operator="out"/>
<feColorMatrix type="matrix" values="0 0 0 0 0.952941 0 0 0 0 0.392157 0 0 0 0 0.0784314 0 0 0 1 0"/>
<feBlend mode="normal" in2="BackgroundImageFix" result="effect1_dropShadow_247_36"/>
<feBlend mode="normal" in="SourceGraphic" in2="effect1_dropShadow_247_36" result="shape"/>
</filter>
<filter id="filter2_d_247_36" x="41.6835" y="66.942" width="143.088" height="41.772" filterUnits="userSpaceOnUse" color-interpolation-filters="sRGB">
<feFlood flood-opacity="0" result="BackgroundImageFix"/>
<feColorMatrix in="SourceAlpha" type="matrix" values="0 0 0 0 0 0 0 0 0 0 0 0 0 0 0 0 0 0 127 0" result="hardAlpha"/>
<feOffset dx="3" dy="5"/>
<feGaussianBlur stdDeviation="3"/>
<feComposite in2="hardAlpha" operator="out"/>
<feColorMatrix type="matrix" values="0 0 0 0 0.952941 0 0 0 0 0.392157 0 0 0 0 0.0784314 0 0 0 1 0"/>
<feBlend mode="normal" in2="BackgroundImageFix" result="effect1_dropShadow_247_36"/>
<feBlend mode="normal" in="SourceGraphic" in2="effect1_dropShadow_247_36" result="shape"/>
</filter>
<filter id="filter3_d_247_36" x="0" y="28" width="204" height="69" filterUnits="userSpaceOnUse" color-interpolation-filters="sRGB">
<feFlood flood-opacity="0" result="BackgroundImageFix"/>
<feColorMatrix in="SourceAlpha" type="matrix" values="0 0 0 0 0 0 0 0 0 0 0 0 0 0 0 0 0 0 127 0" result="hardAlpha"/>
<feOffset dx="3" dy="5"/>
<feGaussianBlur stdDeviation="3"/>
<feComposite in2="hardAlpha" operator="out"/>
<feColorMatrix type="matrix" values="0 0 0 0 0.952941 0 0 0 0 0.392157 0 0 0 0 0.0784314 0 0 0 1 0"/>
<feBlend mode="normal" in2="BackgroundImageFix" result="effect1_dropShadow_247_36"/>
<feBlend mode="normal" in="SourceGraphic" in2="effect1_dropShadow_247_36" result="shape"/>
</filter>
</defs>
</svg>
